<svg id="Layer_1" data-name="Layer 1" xmlns="http://www.w3.org/2000/svg" viewBox="0 0 530.16 527.17">
    <defs>
        <style>.cls-1,.cls-3{fill:#fff;}.cls-2{fill:#1d1d1b;}.cls-3{stroke:#1d1d1b;stroke-miterlimit:10;stroke-width:14px;}</style>
    </defs>
    <title>logo</title>
    <rect class="cls-1" x="141.69" y="108.88" width="283.55" height="283.55"/>
    <path class="cls-2" d="M425.48,493.28c-18,5.65-37,12.34-57.51,19.85L301.86,537.6c-23.66,8.65-49,17.6-75.85,26.32s-55.13,17.24-84.43,25.21L-.1,627.67,45.38,492.93l95.7-283.55.14-.4.36-.1,283.55-79.1,104.92-29.27L504.73,209.38c-6.59,28.32-13.61,55.81-20.84,82.1s-14.61,51.35-21.76,75-14,45.93-20.23,67S430.16,474.29,425.48,493.28Zm-.71-.71c-4.67-28.27-10.2-55.71-16.41-81.93s-13.08-51.22-20.24-74.81-14.55-45.8-21.76-66.77-14.25-40.74-20.84-59.68L425.13,289l-283.55-79.1.5-.5,95.71,283.55-96.21-96.21c18,8,36.92,16.47,57.35,25.21s42.32,17.68,65.92,26.32,48.88,17,75.66,24.47S395.52,486.92,424.77,492.57Z" transform="translate(0.1 -100.51)"/>
    <circle class="cls-3" cx="292.15" cy="250.65" r="82.03"/>
    <circle class="cls-3" cx="292.15" cy="250.65" r="11.13"/>
</svg>